<svg width="182" height="54" viewBox="0 0 182 54" fill="none" xmlns="http://www.w3.org/2000/svg">
<path d="M21.492 22.864C21.492 24.328 21.156 25.672 20.484 26.896C19.812 28.096 18.78 29.068 17.388 29.812C15.996 30.556 14.268 30.928 12.204 30.928H8.388V40H2.232V14.728H12.204C14.22 14.728 15.924 15.076 17.316 15.772C18.708 16.468 19.752 17.428 20.448 18.652C21.144 19.876 21.492 21.28 21.492 22.864ZM11.736 26.032C12.912 26.032 13.788 25.756 14.364 25.204C14.94 24.652 15.228 23.872 15.228 22.864C15.228 21.856 14.94 21.076 14.364 20.524C13.788 19.972 12.912 19.696 11.736 19.696H8.388V26.032H11.736ZM27.7928 17.824C26.7128 17.824 25.8248 17.512 25.1288 16.888C24.4568 16.24 24.1208 15.448 24.1208 14.512C24.1208 13.552 24.4568 12.76 25.1288 12.136C25.8248 11.488 26.7128 11.164 27.7928 11.164C28.8488 11.164 29.7128 11.488 30.3848 12.136C31.0808 12.76 31.4288 13.552 31.4288 14.512C31.4288 15.448 31.0808 16.24 30.3848 16.888C29.7128 17.512 28.8488 17.824 27.7928 17.824ZM30.8528 19.912V40H24.6968V19.912H30.8528ZM61.1229 14.728V19.66H54.4269V40H48.2709V19.66H41.5749V14.728H61.1229ZM83.1485 29.632C83.1485 30.208 83.1125 30.808 83.0405 31.432H69.1085C69.2045 32.68 69.6005 33.64 70.2965 34.312C71.0165 34.96 71.8925 35.284 72.9245 35.284C74.4605 35.284 75.5285 34.636 76.1285 33.34H82.6805C82.3445 34.66 81.7325 35.848 80.8445 36.904C79.9805 37.96 78.8885 38.788 77.5685 39.388C76.2485 39.988 74.7725 40.288 73.1405 40.288C71.1725 40.288 69.4205 39.868 67.8845 39.028C66.3485 38.188 65.1485 36.988 64.2845 35.428C63.4205 33.868 62.9885 32.044 62.9885 29.956C62.9885 27.868 63.4085 26.044 64.2485 24.484C65.1125 22.924 66.3125 21.724 67.8485 20.884C69.3845 20.044 71.1485 19.624 73.1405 19.624C75.0845 19.624 76.8125 20.032 78.3245 20.848C79.8365 21.664 81.0125 22.828 81.8525 24.34C82.7165 25.852 83.1485 27.616 83.1485 29.632ZM76.8485 28.012C76.8485 26.956 76.4885 26.116 75.7685 25.492C75.0485 24.868 74.1485 24.556 73.0685 24.556C72.0365 24.556 71.1605 24.856 70.4405 25.456C69.7445 26.056 69.3125 26.908 69.1445 28.012H76.8485ZM94.5681 40.288C92.8161 40.288 91.2561 39.988 89.8881 39.388C88.5201 38.788 87.4401 37.972 86.6481 36.94C85.8561 35.884 85.4121 34.708 85.3161 33.412H91.4001C91.4721 34.108 91.7961 34.672 92.3721 35.104C92.9481 35.536 93.6561 35.752 94.4961 35.752C95.2641 35.752 95.8521 35.608 96.2601 35.32C96.6921 35.008 96.9081 34.612 96.9081 34.132C96.9081 33.556 96.6081 33.136 96.0081 32.872C95.4081 32.584 94.4361 32.272 93.0921 31.936C91.6521 31.6 90.4521 31.252 89.4921 30.892C88.5321 30.508 87.7041 29.92 87.0081 29.128C86.3121 28.312 85.9641 27.22 85.9641 25.852C85.9641 24.7 86.2761 23.656 86.9001 22.72C87.5481 21.76 88.4841 21.004 89.7081 20.452C90.9561 19.9 92.4321 19.624 94.1361 19.624C96.6561 19.624 98.6361 20.248 100.076 21.496C101.54 22.744 102.38 24.4 102.596 26.464H96.9081C96.8121 25.768 96.5001 25.216 95.9721 24.808C95.4681 24.4 94.7961 24.196 93.9561 24.196C93.2361 24.196 92.6841 24.34 92.3001 24.628C91.9161 24.892 91.7241 25.264 91.7241 25.744C91.7241 26.32 92.0241 26.752 92.6241 27.04C93.2481 27.328 94.2081 27.616 95.5041 27.904C96.9921 28.288 98.2041 28.672 99.1401 29.056C100.076 29.416 100.892 30.016 101.588 30.856C102.308 31.672 102.68 32.776 102.704 34.168C102.704 35.344 102.368 36.4 101.696 37.336C101.048 38.248 100.1 38.968 98.8521 39.496C97.6281 40.024 96.2001 40.288 94.5681 40.288ZM112.626 13.36V40H106.47V13.36H112.626ZM115.863 29.92C115.863 27.856 116.247 26.044 117.015 24.484C117.807 22.924 118.875 21.724 120.219 20.884C121.563 20.044 123.063 19.624 124.719 19.624C126.135 19.624 127.371 19.912 128.427 20.488C129.507 21.064 130.335 21.82 130.911 22.756V19.912H137.067V40H130.911V37.156C130.311 38.092 129.471 38.848 128.391 39.424C127.335 40 126.099 40.288 124.683 40.288C123.051 40.288 121.563 39.868 120.219 39.028C118.875 38.164 117.807 36.952 117.015 35.392C116.247 33.808 115.863 31.984 115.863 29.92ZM130.911 29.956C130.911 28.42 130.479 27.208 129.615 26.32C128.775 25.432 127.743 24.988 126.519 24.988C125.295 24.988 124.251 25.432 123.387 26.32C122.547 27.184 122.127 28.384 122.127 29.92C122.127 31.456 122.547 32.68 123.387 33.592C124.251 34.48 125.295 34.924 126.519 34.924C127.743 34.924 128.775 34.48 129.615 33.592C130.479 32.704 130.911 31.492 130.911 29.956Z" fill="#F5F5F5"/>
<path d="M175.25 13.375H156.125C154.212 13.375 152.75 14.8375 152.75 16.75C152.75 18.6625 154.212 20.125 156.125 20.125H175.25V42.625" stroke="#F5F5F5" stroke-width="1.9" stroke-miterlimit="10" stroke-linecap="round" stroke-linejoin="round"/>
<path d="M175.25 42.625H156.125C154.212 42.625 152.75 41.1625 152.75 39.25V16.75" stroke="#F5F5F5" stroke-width="1.9" stroke-miterlimit="10" stroke-linecap="round" stroke-linejoin="round"/>
<path d="M175.25 16.75H156.125" stroke="#F5F5F5" stroke-width="1.9" stroke-miterlimit="10" stroke-linecap="round" stroke-linejoin="round"/>
<path d="M158.375 20.125V33.625L161.75 32.5L165.125 33.625V20.125" stroke="#F5F5F5" stroke-width="1.9" stroke-miterlimit="10" stroke-linecap="round" stroke-linejoin="round"/>
</svg>
